<svg id="Layer_1" data-name="Layer 1" xmlns="http://www.w3.org/2000/svg" width="736.9893" height="117.7242" viewBox="0 0 736.9893 117.7242"><title>logo_dockerplex_black</title><g id="Layer_5" data-name="Layer 5"><g id="Layer_7" data-name="Layer 7"><g id="Layer_6_copy" data-name="Layer 6 copy"><g id="_Group_" data-name=" Group "><path d="M220.5274,74a58.8621,58.8621,0,1,0,58.862,58.8622v0A58.862,58.862,0,0,0,220.5274,74Zm47.14,82.8058a52.8562,52.8562,0,1,1-22.2961-71.3473h0c25.8,13.3776,35.6738,45.5477,22.2961,71.3473Z" transform="translate(-161.6653 -74)"/><path d="M225.6236,123.68a9.8852,9.8852,0,0,0-13.3618,4.1108l-.0158.03a9.6885,9.6885,0,1,0,13.3776-4.1408Z" transform="translate(-161.6653 -74)"/><path d="M214.4756,144.3836a1.9244,1.9244,0,0,0-1.5926,3.5038,2.0062,2.0062,0,0,0,2.5481-.9555A2.1342,2.1342,0,0,0,214.4756,144.3836Z" transform="translate(-161.6653 -74)"/><path d="M219.2533,115.0805a1.9242,1.9242,0,0,0-1.5926,3.5035h0a2.0061,2.0061,0,0,0,2.5481-.9555,1.6032,1.6032,0,0,0-.9555-2.548Z" transform="translate(-161.6653 -74)"/><path d="M232.631,141.8356a1.9243,1.9243,0,1,0,.9554,2.5481h0a1.6032,1.6032,0,0,0-.9555-2.548Z" transform="translate(-161.6653 -74)"/><path d="M206.1943,127.821a1.9243,1.9243,0,1,0-1.6039,3.4984l.0114.0052a2.0061,2.0061,0,0,0,2.5481-.9555A2.1342,2.1342,0,0,0,206.1943,127.821Z" transform="translate(-161.6653 -74)"/><path d="M235.8166,123.68a1.9244,1.9244,0,1,0,.9555,2.5483,1.6035,1.6035,0,0,0-.9555-2.5483Z" transform="translate(-161.6653 -74)"/><path d="M242.1866,91.1919c-5.0962-2.8667-11.148-1.9112-15.6073,1.2739a13.29,13.29,0,0,0-4.1407,5.0964c-.3184.6368-.637.9555-.637,1.5925a14.635,14.635,0,0,0,25.8,13.3775c.3184-.3184.6369-.9555.9555-1.274a14.4994,14.4994,0,0,0,1.5926-6.37A14.2734,14.2734,0,0,0,242.1866,91.1919Zm2.8667,18.1551c-.3187.3187-.6371.9557-.9557,1.2742a44.4188,44.4188,0,0,0-8.6-6.6887,23.8311,23.8311,0,0,0-10.1925-3.1852c.3185-.6371.3185-.9557.637-1.5926A10.981,10.981,0,0,1,232.631,93.74a44.19,44.19,0,0,1,12.7406,6.6887,9.8027,9.8027,0,0,1-.3185,8.9183Z" transform="translate(-161.6653 -74)"/><path d="M260.66,126.8653a6.9742,6.9742,0,0,0-1.5926-.9555,14.605,14.605,0,1,0-13.6961,25.8,14.4234,14.4234,0,0,0,9.5554,1.274A15.33,15.33,0,0,0,265.12,145.34C268.9416,138.9693,266.712,131.0062,260.66,126.8653Zm-2.8666,21.34a11.8657,11.8657,0,0,1-9.874.6371c.3186-.6371.637-.9555.9555-1.5926a30.4071,30.4071,0,0,0,3.1851-18.7924,10.0867,10.0867,0,0,1,5.0964,1.2741,9.3661,9.3661,0,0,1,3.8222,3.1852,37.64,37.64,0,0,1-3.1853,15.2891Z" transform="translate(-161.6653 -74)"/><path d="M204.2831,96.9251c-.6369-.3186-.9555-.6371-1.5926-.6371a14.7577,14.7577,0,0,0-18.1552,7.0074,13.8554,13.8554,0,0,0-.3186,12.7406,14.2413,14.2413,0,0,0,6.6889,7.0073,14.6284,14.6284,0,0,0,19.7478-6.0518A15.1147,15.1147,0,0,0,204.2831,96.9251Zm-11.4665,20.7034c-.3184.6371-.637.9555-.9555,1.5926a11.6351,11.6351,0,0,1-5.0963-8.2815,46.3792,46.3792,0,0,1,10.8295-11.4664,8.987,8.987,0,0,1,4.7778,1.2741,10.1244,10.1244,0,0,1,3.8222,3.5036A28.664,28.664,0,0,0,192.8166,117.6285Z" transform="translate(-161.6653 -74)"/><path d="M197.5943,134.51A14.4527,14.4527,0,0,0,177.99,140.292q-.073.1339-.1432.27a14.6282,14.6282,0,0,0,6.0519,19.7477,14.1759,14.1759,0,0,0,9.5554,1.2742,13.8391,13.8391,0,0,0,10.1923-7.6444,14.0038,14.0038,0,0,0-5.3591-19.0656Q197.9458,134.682,197.5943,134.51ZM189.95,158.08a43.6863,43.6863,0,0,1-8.2813-16.2443,10.7877,10.7877,0,0,1,7.6444-5.0962,31.2058,31.2058,0,0,0,9.2368,18.1554,10.8129,10.8129,0,0,1-8.6,3.1852Z" transform="translate(-161.6653 -74)"/><path d="M232.3125,152.6651a14.473,14.473,0,0,0-19.5648,6.0126q-.0941.1774-.1831.3574a13.8721,13.8721,0,0,0-.3186,12.7406,14.2409,14.2409,0,0,0,6.6889,7.0073,14.6286,14.6286,0,0,0,19.7479-6.0518,14.0909,14.0909,0,0,0,1.5926-4.7777C240.9122,161.5835,238.0458,155.5316,232.3125,152.6651Zm3.1852,17.5575a37.5554,37.5554,0,0,1-14.6518,2.8667h-3.5036a11.2172,11.2172,0,0,1-2.23-8.9184,33.1341,33.1341,0,0,0,20.0664-2.8667C236.7716,163.8523,236.7716,167.0374,235.4977,170.2226Z" transform="translate(-161.6653 -74)"/></g></g></g></g><path d="M312.6785,104.3183c17.0645,0,30.3487,12.0962,30.3487,29.3765,0,17.4961-13.2842,29.4843-30.3487,29.4843h-22.14a1.3663,1.3663,0,0,1-1.5122-1.5117V105.83a1.3667,1.3667,0,0,1,1.5122-1.5117Zm-13.8242,49.5728h13.8242c11.7725,0,20.3047-8.3164,20.3047-20.1963,0-11.7725-8.5322-20.1963-20.3047-20.1963H298.8543Z" transform="translate(-161.6653 -74)"/><path d="M382.0135,103.454c17.0644,0,30.3492,12.7442,30.3492,30.3487,0,17.4966-13.2848,30.2407-30.3492,30.2407s-30.3481-12.7441-30.3481-30.2407C351.6654,116.1982,364.95,103.454,382.0135,103.454Zm-20.4121,30.3487c0,12.0962,8.3159,21.06,20.4121,21.06s20.4126-8.9638,20.4126-21.06c0-12.2041-8.3164-21.1685-20.4126-21.1685S361.6014,121.5986,361.6014,133.8027Z" transform="translate(-161.6653 -74)"/><path d="M476.2983,116.1982a1.1714,1.1714,0,0,1-.2159,1.8364l-5.0761,3.9961a1.3651,1.3651,0,0,1-1.9106-.2769q-.0174-.0233-.0338-.0473c-4.6445-6.0479-10.26-9.0723-17.6045-9.0723-11.9873,0-20.5205,9.0723-20.5205,21.0606,0,12.0957,8.5332,21.1679,20.5205,21.1679,7.3448,0,13.1768-3.24,17.82-9.288.54-.6475,1.08-.6475,1.8359-.1075l5.0761,4.1035a1.17,1.17,0,0,1,.2159,1.836,29.8508,29.8508,0,0,1-24.9484,12.6367c-17.28,0-30.4559-12.7441-30.4559-30.3486,0-17.3882,13.1757-30.2408,30.4559-30.2408A29.7539,29.7539,0,0,1,476.2983,116.1982Z" transform="translate(-161.6653 -74)"/><path d="M495.52,104.3183a1.3666,1.3666,0,0,1,1.5127,1.5117v25.92l27.8641-26.2437a4.3209,4.3209,0,0,1,3.1318-1.188h9.7207a.9556.9556,0,0,1,.6475,1.728l-25.92,23.6524,27.3242,31.6445c.7559.7559.3242,1.8359-.8643,1.8359h-8.64a4.1026,4.1026,0,0,1-3.24-1.4043l-21.709-25.7041-8.3155,6.6963v18.9a1.3666,1.3666,0,0,1-1.5127,1.5117h-6.8027a1.3664,1.3664,0,0,1-1.5118-1.5117V105.83a1.3665,1.3665,0,0,1,1.5118-1.5117Z" transform="translate(-161.6653 -74)"/><path d="M592.7192,104.3183a1.5454,1.5454,0,0,1,1.5127,1.5117v6.1563a1.53,1.53,0,0,1-1.5127,1.4043h-34.128v14.58h31.1045a1.3667,1.3667,0,0,1,1.5117,1.5123v6.1557c0,.9722-.54,1.4043-1.5117,1.4043H558.5911v16.9564h35.208c.9727,0,1.4043.4316,1.4043,1.2959v6.372c0,.9717-.4316,1.5117-1.4043,1.5117H550.1666c-.9717,0-1.4033-.54-1.4033-1.5117V105.83c0-.9717.4316-1.5117,1.4033-1.5117Z" transform="translate(-161.6653 -74)"/><path d="M635.5942,104.3183c12.8524,0,22.249,9.2881,22.249,21.06a20.5149,20.5149,0,0,1-11.2324,18.5761l9.8281,17.4961c.54.9727,0,1.7285-1.1885,1.7285h-7.8838a2.67,2.67,0,0,1-2.16-1.5117l-7.884-15.228a5.72,5.72,0,0,1-1.5117.1084h-18.9v15.12c0,.9717-.4326,1.5117-1.4043,1.5117h-6.8037a1.4449,1.4449,0,0,1-1.62-1.5117V105.83a1.3664,1.3664,0,0,1,1.5117-1.5117Zm0,33.0483c7.8847,0,12.4209-5.0761,12.4209-11.9882,0-6.8037-4.5362-11.88-12.4209-11.88H616.9106v23.8681Z" transform="translate(-161.6653 -74)"/><path d="M698.1253,104.3183c12.6358,0,21.8165,8.9639,21.8165,20.6284,0,11.772-9.1807,20.628-21.8165,20.628H676.8489v16.2c0,.9727-.4326,1.4043-1.4043,1.4043h-4.32c-.9716,0-1.4033-.4316-1.4033-1.4043V105.7221c0-.9717.4317-1.4038,1.4033-1.4038Zm0,34.7764c9.504,0,14.6885-5.94,14.6885-14.148,0-8.1-5.1845-14.1484-14.6885-14.1484H676.8489v28.2964Z" transform="translate(-161.6653 -74)"/><path d="M736.4632,104.3183c.9717,0,1.4043.4321,1.4043,1.4038v50.9766H775.56a1.3662,1.3662,0,0,1,1.5117,1.5127v3.456a1.3663,1.3663,0,0,1-1.5117,1.5117H732.2513a1.4737,1.4737,0,0,1-1.5117-1.4347c-.0007-.0257-.0007-.0513,0-.077V105.7221c0-.9717.4316-1.4038,1.4033-1.4038Z" transform="translate(-161.6653 -74)"/><path d="M831.1791,104.3183c.9716,0,1.4033.4321,1.4033,1.4038v3.6724c0,.9717-.4317,1.4038-1.4033,1.4038H794.9985v18.1445h34.1282c.9726,0,1.4043.4317,1.4043,1.4038v3.6719c0,.9722-.4317,1.4043-1.4043,1.4043H794.9988v21.2759H832.26c.9717,0,1.4033.4326,1.4033,1.2969v3.7792c0,.9727-.4316,1.4043-1.4033,1.4043H789.2741c-.9715,0-1.4033-.4316-1.4033-1.4043V105.7221c0-.9717.4317-1.4038,1.4033-1.4038Z" transform="translate(-161.6653 -74)"/><path d="M850.8353,104.3183a2.1791,2.1791,0,0,1,1.9434.9722l17.1728,22.248h.54l16.6319-22.248a2.5074,2.5074,0,0,1,2.0518-.9722h6.0488c.7559,0,1.08.7559.54,1.5117L874.811,132.0747l23.6533,29.8085c.4317.54.1075,1.2959-.7569,1.2959h-6.2636a2.26,2.26,0,0,1-1.836-.9716l-19.44-25.4888h-.54l-18.792,25.38a2.291,2.291,0,0,1-1.9445,1.08h-6.2635c-.757,0-1.08-.54-.6486-1.2959L865.2,132.1822l-20.8447-26.46a.8311.8311,0,0,1,.6484-1.4038Z" transform="translate(-161.6653 -74)"/></svg>