<svg xmlns="http://www.w3.org/2000/svg" viewBox="0 0 609.64 60.6"><title>Asset 1</title><g id="Layer_2" data-name="Layer 2"><g id="Layer_1-2" data-name="Layer 1"><path d="M23.66.87C40.73.87,54,13,54,30.24c0,17.5-13.28,29.48-30.35,29.48H1.52A1.37,1.37,0,0,1,0,58.22V2.38A1.37,1.37,0,0,1,1.52.87ZM9.84,50.44H23.66c11.77,0,20.3-8.32,20.3-20.2S35.43,10,23.66,10H9.84Z"/><path d="M93,0c17.06,0,30.35,12.74,30.35,30.35S110.06,60.59,93,60.59,62.65,47.85,62.65,30.35,75.93,0,93,0ZM72.58,30.35c0,12.1,8.32,21.06,20.41,21.06s20.41-9,20.41-21.06S105.09,9.18,93,9.18s-20.41,9-20.41,21.17Z"/><path d="M187.28,12.75a1.17,1.17,0,0,1-.22,1.84l-5.08,4a1.37,1.37,0,0,1-1.91-.28h0l0,0c-4.64-6-10.26-9.07-17.6-9.07-12,0-20.52,9.07-20.52,21.06s8.53,21.17,20.52,21.17c7.34,0,13.18-3.24,17.82-9.29.54-.65,1.08-.65,1.84-.11l5.08,4.1a1.17,1.17,0,0,1,.22,1.84,29.85,29.85,0,0,1-24.95,12.64C145.16,60.59,132,47.85,132,30.24,132,12.86,145.16,0,162.44,0A29.75,29.75,0,0,1,187.28,12.75Z"/><path d="M206.5.87A1.37,1.37,0,0,1,208,2.38V28.3L235.88,2.06A4.32,4.32,0,0,1,239,.87h9.72a1,1,0,0,1,.65,1.73L223.46,26.25l27.32,31.64c.76.76.32,1.84-.86,1.84h-8.64a4.1,4.1,0,0,1-3.24-1.4l-21.71-25.7L208,39.32v18.9a1.37,1.37,0,0,1-1.51,1.51h-6.8a1.37,1.37,0,0,1-1.51-1.51V2.38A1.37,1.37,0,0,1,199.7.87Z"/><path d="M303.7.87a1.55,1.55,0,0,1,1.51,1.51V8.54a1.53,1.53,0,0,1-1.51,1.4H269.57V24.52h31.1A1.37,1.37,0,0,1,302.19,26v6.16c0,1-.54,1.4-1.51,1.4h-31.1v17h35.21c1,0,1.4.43,1.4,1.3v6.37c0,1-.43,1.51-1.4,1.51H261.15c-1,0-1.4-.54-1.4-1.51V2.38c0-1,.43-1.51,1.4-1.51Z"/><path d="M346.58.87c12.85,0,22.25,9.29,22.25,21.06A20.51,20.51,0,0,1,357.59,40.5L367.42,58c.54,1,0,1.73-1.19,1.73h-7.88a2.67,2.67,0,0,1-2.16-1.51L348.31,43a5.72,5.72,0,0,1-1.51.11h-18.9V58.22c0,1-.43,1.51-1.4,1.51h-6.8a1.44,1.44,0,0,1-1.62-1.51V2.38A1.37,1.37,0,0,1,319.58.87Zm0,33c7.88,0,12.42-5.08,12.42-12S354.46,10,346.58,10H327.89V33.92Z"/><path d="M409.11.87c12.64,0,21.82,9,21.82,20.63s-9.18,20.63-21.82,20.63H387.83v16.2c0,1-.43,1.4-1.4,1.4h-4.32c-1,0-1.4-.43-1.4-1.4V2.27c0-1,.43-1.4,1.4-1.4Zm0,34.78c9.5,0,14.69-5.94,14.69-14.15S418.61,7.35,409.11,7.35H387.83v28.3Z"/><path d="M447.45.87c1,0,1.4.43,1.4,1.4v51h37.69a1.37,1.37,0,0,1,1.51,1.51v3.46a1.37,1.37,0,0,1-1.51,1.51H443.23a1.47,1.47,0,0,1-1.51-1.43h0s0-.05,0-.08V2.27c0-1,.43-1.4,1.4-1.4Z"/><path d="M542.16.87c1,0,1.4.43,1.4,1.4V5.94c0,1-.43,1.4-1.4,1.4H506V25.49h34.13c1,0,1.4.43,1.4,1.4v3.67c0,1-.43,1.4-1.4,1.4H506V53.25h37.26c1,0,1.4.43,1.4,1.3v3.78c0,1-.43,1.4-1.4,1.4h-43c-1,0-1.4-.43-1.4-1.4V2.27c0-1,.43-1.4,1.4-1.4Z"/><path d="M561.82.87a2.18,2.18,0,0,1,1.94,1l17.17,22.25h.54L598.11,1.84a2.51,2.51,0,0,1,2.05-1h6c.76,0,1.08.76.54,1.51l-21,26.24,23.65,29.81c.43.54.11,1.3-.76,1.3h-6.26a2.26,2.26,0,0,1-1.84-1L581.15,33.27h-.54L561.82,58.65a2.29,2.29,0,0,1-1.94,1.08h-6.26c-.76,0-1.08-.54-.65-1.3l23.22-29.7L555.34,2.27A.83.83,0,0,1,556,.87Z"/></g></g></svg>