<svg id="Layer_1" data-name="Layer 1" xmlns="http://www.w3.org/2000/svg" xmlns:xlink="http://www.w3.org/1999/xlink" width="736.9892" height="117.7242" viewBox="0 0 736.9892 117.7242"><defs><linearGradient id="linear-gradient" x1="443.7186" y1="216.7728" x2="561.3161" y2="216.7728" gradientUnits="userSpaceOnUse"><stop offset="0" stop-color="#ff9068"/><stop offset="1" stop-color="#fd746c"/></linearGradient><linearGradient id="linear-gradient-2" x1="493.1056" y1="216.1908" x2="512.6939" y2="216.1908" xlink:href="#linear-gradient"/><linearGradient id="linear-gradient-3" x1="493.6879" y1="230.0462" x2="497.5985" y2="230.0462" xlink:href="#linear-gradient"/><linearGradient id="linear-gradient-4" x1="498.7109" y1="200.7429" x2="502.6215" y2="200.7429" xlink:href="#linear-gradient"/><linearGradient id="linear-gradient-5" x1="512.0168" y1="227.4981" x2="515.9408" y2="227.4981" xlink:href="#linear-gradient"/><linearGradient id="linear-gradient-6" x1="485.4475" y1="213.4835" x2="489.3583" y2="213.4835" xlink:href="#linear-gradient"/><linearGradient id="linear-gradient-7" x1="515.1529" y1="209.3428" x2="519.0779" y2="209.3428" xlink:href="#linear-gradient"/><linearGradient id="linear-gradient-8" x1="502.8728" y1="188.14" x2="532.2214" y2="188.14" xlink:href="#linear-gradient"/><linearGradient id="linear-gradient-9" x1="519.7589" y1="222.6597" x2="549.1492" y2="222.6597" xlink:href="#linear-gradient"/><linearGradient id="linear-gradient-10" x1="464.8744" y1="193.9672" x2="494.2606" y2="193.9672" xlink:href="#linear-gradient"/><linearGradient id="linear-gradient-11" x1="458.1968" y1="231.2872" x2="487.5724" y2="231.2872" xlink:href="#linear-gradient"/><linearGradient id="linear-gradient-12" x1="493.0527" y1="249.6393" x2="522.4208" y2="249.6393" xlink:href="#linear-gradient"/></defs><title>logo_dockerplex_orange</title><g id="Layer_5" data-name="Layer 5"><g id="Layer_7" data-name="Layer 7"><g id="Layer_6_copy" data-name="Layer 6 copy"><g id="_Group_" data-name="&lt;Group&gt;"><path d="M502.5808,157.9107a58.8621,58.8621,0,1,0,58.862,58.862A58.8621,58.8621,0,0,0,502.5808,157.9107Zm47.14,82.8058a52.8562,52.8562,0,1,1-22.296-71.3473C553.2245,182.7468,563.0986,214.9169,549.7209,240.7165Z" transform="translate(-443.7186 -157.9107)" fill="url(#linear-gradient)"/><path d="M507.677,207.5909a9.8853,9.8853,0,0,0-13.3777,4.1408,9.6873,9.6873,0,0,0,17.2,8.9184A9.7732,9.7732,0,0,0,507.677,207.5909Z" transform="translate(-443.7186 -157.9107)" fill="url(#linear-gradient-2)"/><path d="M496.529,228.2943a1.9244,1.9244,0,0,0-1.5926,3.5038,2.0062,2.0062,0,0,0,2.5481-.9555A2.1343,2.1343,0,0,0,496.529,228.2943Z" transform="translate(-443.7186 -157.9107)" fill="url(#linear-gradient-3)"/><path d="M501.3067,198.9912a1.9242,1.9242,0,1,0-1.5926,3.5035,2.0061,2.0061,0,0,0,2.5481-.9555A1.6033,1.6033,0,0,0,501.3067,198.9912Z" transform="translate(-443.7186 -157.9107)" fill="url(#linear-gradient-4)"/><path d="M514.6843,225.7463a1.9243,1.9243,0,1,0,.9555,2.548A1.6033,1.6033,0,0,0,514.6843,225.7463Z" transform="translate(-443.7186 -157.9107)" fill="url(#linear-gradient-5)"/><path d="M488.2477,211.7317a1.9243,1.9243,0,1,0-1.5926,3.5036,2.0061,2.0061,0,0,0,2.5481-.9555A2.1343,2.1343,0,0,0,488.2477,211.7317Z" transform="translate(-443.7186 -157.9107)" fill="url(#linear-gradient-6)"/><path d="M517.87,207.5909a1.9244,1.9244,0,1,0,.9555,2.5483A1.6036,1.6036,0,0,0,517.87,207.5909Z" transform="translate(-443.7186 -157.9107)" fill="url(#linear-gradient-7)"/><path d="M524.24,175.1026c-5.0962-2.8667-11.148-1.9112-15.6073,1.2739a13.2887,13.2887,0,0,0-4.1407,5.0964c-.3184.6368-.637.9555-.637,1.5925a14.635,14.635,0,0,0,25.8,13.3775c.3185-.3184.6369-.9555.9555-1.274a14.4991,14.4991,0,0,0,1.5926-6.37A14.2734,14.2734,0,0,0,524.24,175.1026Zm2.8667,18.1551c-.3187.3187-.6371.9557-.9557,1.2742a44.4194,44.4194,0,0,0-8.6-6.6887,23.8314,23.8314,0,0,0-10.1925-3.1852c.3185-.6371.3185-.9557.6371-1.5926a10.9811,10.9811,0,0,1,6.6887-5.4147,44.1894,44.1894,0,0,1,12.7406,6.6887A9.8028,9.8028,0,0,1,527.1065,193.2577Z" transform="translate(-443.7186 -157.9107)" fill="url(#linear-gradient-8)"/><path d="M542.7136,210.776a6.9738,6.9738,0,0,0-1.5926-.9555,14.6049,14.6049,0,1,0-13.6961,25.8,14.4236,14.4236,0,0,0,9.5554,1.274,15.33,15.33,0,0,0,10.1925-7.6443C550.995,222.88,548.7654,214.9169,542.7136,210.776Zm-2.8666,21.34a11.8655,11.8655,0,0,1-9.874.6371c.3186-.6371.637-.9555.9555-1.5926a30.4071,30.4071,0,0,0,3.1851-18.7924,10.0869,10.0869,0,0,1,5.0964,1.2741,9.3657,9.3657,0,0,1,3.8222,3.1852A37.6384,37.6384,0,0,1,539.847,232.1165Z" transform="translate(-443.7186 -157.9107)" fill="url(#linear-gradient-9)"/><path d="M486.3365,180.8358c-.6369-.3186-.9555-.6371-1.5926-.6371a14.7577,14.7577,0,0,0-18.1552,7.0074,13.8555,13.8555,0,0,0-.3186,12.7406,14.2412,14.2412,0,0,0,6.6889,7.0073,14.6284,14.6284,0,0,0,19.7478-6.0518A15.1147,15.1147,0,0,0,486.3365,180.8358ZM474.87,201.5392c-.3184.6371-.637.9555-.9555,1.5926a11.635,11.635,0,0,1-5.0963-8.2815,46.38,46.38,0,0,1,10.8295-11.4664,8.9874,8.9874,0,0,1,4.7778,1.2741,10.1248,10.1248,0,0,1,3.8222,3.5036A28.6639,28.6639,0,0,0,474.87,201.5392Z" transform="translate(-443.7186 -157.9107)" fill="url(#linear-gradient-10)"/><path d="M479.6477,218.4205A14.4529,14.4529,0,0,0,459.9,224.4723a14.6281,14.6281,0,0,0,6.0519,19.7477,14.1757,14.1757,0,0,0,9.5554,1.2742,13.8393,13.8393,0,0,0,10.1923-7.6444A14.0039,14.0039,0,0,0,479.6477,218.4205Zm-7.6444,23.57a43.6864,43.6864,0,0,1-8.2813-16.2443,10.7875,10.7875,0,0,1,7.6444-5.0962,31.2053,31.2053,0,0,0,9.2368,18.1554A10.8128,10.8128,0,0,1,472.0033,241.9906Z" transform="translate(-443.7186 -157.9107)" fill="url(#linear-gradient-11)"/><path d="M514.3659,236.5758a14.473,14.473,0,0,0-19.7479,6.37,13.8722,13.8722,0,0,0-.3187,12.7406,14.2412,14.2412,0,0,0,6.6889,7.0073,14.6286,14.6286,0,0,0,19.748-6.0518,14.0935,14.0935,0,0,0,1.5925-4.7777C522.9656,245.4942,520.0991,239.4423,514.3659,236.5758Zm3.1851,17.5575A37.5546,37.5546,0,0,1,502.8993,257h-3.5036a11.2172,11.2172,0,0,1-2.23-8.9184,33.1341,33.1341,0,0,0,20.0664-2.8667C518.825,247.763,518.825,250.9481,517.551,254.1333Z" transform="translate(-443.7186 -157.9107)" fill="url(#linear-gradient-12)"/></g></g></g></g><path d="M594.7319,188.229c17.0645,0,30.3487,12.0962,30.3487,29.3765,0,17.4961-13.2842,29.4843-30.3487,29.4843h-22.14a1.3665,1.3665,0,0,1-1.5122-1.5117V189.7407a1.3665,1.3665,0,0,1,1.5122-1.5117Zm-13.8242,49.5728h13.8242c11.7725,0,20.3047-8.3164,20.3047-20.1963,0-11.7725-8.5322-20.1963-20.3047-20.1963H580.9077Z" transform="translate(-443.7186 -157.9107)" fill="#fd786b"/><path d="M664.0669,187.3647c17.0644,0,30.3491,12.7442,30.3491,30.3487,0,17.4966-13.2847,30.2407-30.3491,30.2407s-30.3481-12.7441-30.3481-30.2407C633.7188,200.1089,647.0029,187.3647,664.0669,187.3647Zm-20.4121,30.3487c0,12.0962,8.3159,21.06,20.4121,21.06s20.4126-8.9638,20.4126-21.06c0-12.2041-8.3164-21.1685-20.4126-21.1685S643.6548,205.5093,643.6548,217.7134Z" transform="translate(-443.7186 -157.9107)" fill="#fd786b"/><path d="M758.3516,200.1089a1.1714,1.1714,0,0,1-.2159,1.8364l-5.0761,3.9961a1.3651,1.3651,0,0,1-1.9444-.3242c-4.6445-6.0479-10.26-9.0723-17.6045-9.0723-11.9873,0-20.5205,9.0723-20.5205,21.0606,0,12.0957,8.5332,21.1679,20.5205,21.1679,7.3448,0,13.1768-3.24,17.82-9.288.54-.6475,1.08-.6475,1.8359-.1075l5.0762,4.1035a1.17,1.17,0,0,1,.2158,1.836,29.8508,29.8508,0,0,1-24.9483,12.6367c-17.28,0-30.456-12.7441-30.456-30.3486,0-17.3882,13.1758-30.2408,30.456-30.2408A29.7537,29.7537,0,0,1,758.3516,200.1089Z" transform="translate(-443.7186 -157.9107)" fill="#fd786b"/><path d="M777.5732,188.229a1.3666,1.3666,0,0,1,1.5127,1.5117v25.92L806.95,189.417a4.321,4.321,0,0,1,3.1318-1.188h9.7207a.9556.9556,0,0,1,.6475,1.728l-25.92,23.6524,27.3242,31.6445c.7559.7559.3242,1.8359-.8643,1.8359h-8.64a4.1031,4.1031,0,0,1-3.24-1.4043l-21.709-25.7041-8.3155,6.6963v18.9a1.3666,1.3666,0,0,1-1.5127,1.5117H770.77a1.3664,1.3664,0,0,1-1.5117-1.5117V189.7407a1.3664,1.3664,0,0,1,1.5117-1.5117Z" transform="translate(-443.7186 -157.9107)" fill="#fd786b"/><path d="M874.7725,188.229a1.5453,1.5453,0,0,1,1.5127,1.5117v6.1563a1.53,1.53,0,0,1-1.5127,1.4043h-34.128v14.58H871.749a1.3665,1.3665,0,0,1,1.5117,1.5123v6.1557c0,.9722-.54,1.4043-1.5117,1.4043H840.6445V237.91h35.208c.9727,0,1.4043.4316,1.4043,1.2959v6.372c0,.9717-.4316,1.5117-1.4043,1.5117H832.22c-.9717,0-1.4033-.54-1.4033-1.5117V189.7407c0-.9717.4316-1.5117,1.4033-1.5117Z" transform="translate(-443.7186 -157.9107)" fill="#fd786b"/><path d="M917.6475,188.229c12.8525,0,22.249,9.2881,22.249,21.06a20.5147,20.5147,0,0,1-11.2324,18.5761l9.8281,17.4961c.54.9727,0,1.7285-1.1885,1.7285H929.42a2.67,2.67,0,0,1-2.16-1.5117L919.376,230.35a5.7185,5.7185,0,0,1-1.5117.1084h-18.9v15.12c0,.9717-.4326,1.5117-1.4043,1.5117h-6.8037a1.445,1.445,0,0,1-1.62-1.5117V189.7407a1.3664,1.3664,0,0,1,1.5118-1.5117Zm0,33.0483c7.8847,0,12.4209-5.0761,12.4209-11.9882,0-6.8037-4.5362-11.88-12.4209-11.88H898.9639v23.8681Z" transform="translate(-443.7186 -157.9107)" fill="#fd786b"/><path d="M980.1787,188.229c12.6358,0,21.8164,8.9639,21.8164,20.6284,0,11.772-9.1806,20.628-21.8164,20.628H958.9023v16.2c0,.9727-.4326,1.4043-1.4043,1.4043h-4.32c-.9716,0-1.4033-.4316-1.4033-1.4043V189.6328c0-.9717.4317-1.4038,1.4033-1.4038Zm0,34.7764c9.5039,0,14.6885-5.94,14.6885-14.148,0-8.1-5.1846-14.1484-14.6885-14.1484H958.9023v28.2964Z" transform="translate(-443.7186 -157.9107)" fill="#fd786b"/><path d="M1018.5166,188.229c.9717,0,1.4043.4321,1.4043,1.4038v50.9766h37.6924a1.3666,1.3666,0,0,1,1.5117,1.5127v3.456a1.3663,1.3663,0,0,1-1.5117,1.5117h-43.3086a1.4737,1.4737,0,0,1-1.5117-1.5117V189.6328c0-.9717.4316-1.4038,1.4033-1.4038Z" transform="translate(-443.7186 -157.9107)" fill="#fd786b"/><path d="M1113.2324,188.229c.9717,0,1.4033.4321,1.4033,1.4038v3.6724c0,.9717-.4316,1.4038-1.4033,1.4038h-36.1806v18.1445H1111.18c.9726,0,1.4043.4317,1.4043,1.4038v3.6719c0,.9722-.4317,1.4043-1.4043,1.4043h-34.1279v21.2759h37.2607c.9717,0,1.4033.4326,1.4033,1.2969v3.7792c0,.9727-.4316,1.4043-1.4033,1.4043h-42.9854c-.9716,0-1.4033-.4316-1.4033-1.4043V189.6328c0-.9717.4317-1.4038,1.4033-1.4038Z" transform="translate(-443.7186 -157.9107)" fill="#fd786b"/><path d="M1132.8887,188.229a2.1788,2.1788,0,0,1,1.9433.9722l17.1729,22.248h.54l16.6319-22.248a2.5075,2.5075,0,0,1,2.0517-.9722h6.0488c.7559,0,1.08.7559.54,1.5117l-20.9531,26.2447,23.6533,29.8085c.4316.54.1074,1.2959-.7569,1.2959h-6.2636a2.26,2.26,0,0,1-1.836-.9716l-19.44-25.4888h-.54l-18.792,25.38a2.2909,2.2909,0,0,1-1.9444,1.08h-6.2636c-.7569,0-1.08-.54-.6485-1.2959l23.2207-29.7006-20.8447-26.46a.8311.8311,0,0,1,.6484-1.4038Z" transform="translate(-443.7186 -157.9107)" fill="#fd786b"/></svg>